<svg xmlns="http://www.w3.org/2000/svg" viewBox="0 0 448 512"><path fill="#25D366" d="M448 256.003c0 141.377-114.623 256-256 256s-256-114.623-256-256 114.623-256 256-256 256 114.623 256 256zm-256-192c-105.869 0-192 86.131-192 192 0 37.421 10.999 72.176 29.99 101.551l-31.99 93.041 96.364-31.175c28.412 15.512 60.94 24.583 94.636 24.583 105.869 0 192-86.131 192-192 0-105.869-86.131-192-192-192zm107.769 269.752c-4.536 12.784-26.582 24.575-36.566 26.104-9.434 1.447-21.274 2.062-61.853-14.782-51.993-21.441-85.257-73.96-87.815-77.385-2.558-3.425-20.787-27.656-20.787-52.663 0 25.007 13.029 37.496 17.564 42.698 4.536 5.202 9.071 6.502 12.172 9.752 3.101 3.25 6.502 4.065 12.172 2.408 5.67-1.657 21.274-8.326 24.375-16.253 3.101-7.927 3.101-14.685 2.172-16.253-0.929-1.568-3.101-2.408-6.502-4.065-3.401-1.657-21.274-8.326-24.375-16.253-3.101-7.927-3.101-14.685-2.172-16.253 0.929-1.568 3.101-2.408 6.502-4.065 3.401-1.657 21.274-8.326 24.375-16.253 3.101-7.927 3.101-14.685 2.172-16.253"/></svg>